<?xml version="1.0" standalone="no"?>
<!DOCTYPE svg PUBLIC "-//W3C//DTD SVG 20010904//EN"
 "http://www.w3.org/TR/2001/REC-SVG-20010904/DTD/svg10.dtd">
<svg version="1.0" xmlns="http://www.w3.org/2000/svg"
 width="700.000000pt" height="700.000000pt" viewBox="0 0 700.000000 700.000000"
 preserveAspectRatio="xMidYMid meet">
<metadata>
Created by potrace 1.11, written by Peter Selinger 2001-2013
</metadata>
<g transform="translate(0.000000,700.000000) scale(0.100000,-0.100000)"
fill="#000000" stroke="none">
<path d="M1995 4500 c-330 -24 -641 -122 -925 -290 -624 -369 -1007 -987
-1062 -1711 -50 -664 241 -1355 750 -1779 306 -256 665 -421 1058 -486 154
-26 548 -26 684 -1 337 63 635 188 926 389 l72 49 73 -55 c275 -206 647 -350
1019 -396 202 -24 518 -7 731 40 232 52 517 173 712 304 516 345 854 879 941
1486 36 254 13 592 -60 870 -131 500 -448 935 -899 1233 -74 49 -356 197 -375
197 -3 0 -13 -42 -22 -92 -123 -668 -562 -1245 -1174 -1544 -72 -35 -136 -64
-142 -64 -6 0 -14 17 -17 38 -87 510 -339 959 -735 1305 -152 133 -265 209
-435 293 -156 76 -261 115 -415 154 -221 56 -472 78 -705 60z m772 -1865 c153
-59 420 -113 606 -122 70 -3 127 -10 127 -15 0 -26 -314 11 -526 62 -85 21
-252 75 -262 85 -10 10 17 5 55 -10z"/>
</g>
</svg>
